<?xml version="1.0" encoding="UTF-8" standalone="no"?>
<!-- Created with Inkscape (http://www.inkscape.org/) -->

<svg
   width="183.95731mm"
   height="34.22229mm"
   viewBox="0 0 183.95731 34.22229"
   version="1.1"
   id="svg1"
   inkscape:version="1.3 (0e150ed6c4, 2023-07-21)"
   sodipodi:docname="dibujo.svg"
   xmlns:inkscape="http://www.inkscape.org/namespaces/inkscape"
   xmlns:sodipodi="http://sodipodi.sourceforge.net/DTD/sodipodi-0.dtd"
   xmlns:xlink="http://www.w3.org/1999/xlink"
   xmlns="http://www.w3.org/2000/svg"
   xmlns:svg="http://www.w3.org/2000/svg">
  <sodipodi:namedview
     id="namedview1"
     pagecolor="#4a7c94"
     bordercolor="#000000"
     borderopacity="0.25"
     inkscape:showpageshadow="true"
     inkscape:pageopacity="0.0"
     inkscape:pagecheckerboard="0"
     inkscape:deskcolor="#d1d1d1"
     inkscape:document-units="mm"
     inkscape:zoom="0.50000001"
     inkscape:cx="207"
     inkscape:cy="159"
     inkscape:window-width="1920"
     inkscape:window-height="1017"
     inkscape:window-x="-8"
     inkscape:window-y="-8"
     inkscape:window-maximized="1"
     inkscape:current-layer="g14"
     borderlayer="true"
     showborder="true"
     shape-rendering="auto" />
  <defs
     id="defs1">
    <linearGradient
       id="linearGradient197"
       inkscape:collect="always">
      <stop
         style="stop-color:#ff0404;stop-opacity:1;"
         offset="0"
         id="stop197" />
      <stop
         style="stop-color:#ff0505;stop-opacity:0.30815709;"
         offset="0.70807451"
         id="stop198" />
    </linearGradient>
    <linearGradient
       id="linearGradient194"
       inkscape:collect="always">
      <stop
         style="stop-color:#ffffff;stop-opacity:1;"
         offset="0.22360249"
         id="stop194" />
      <stop
         style="stop-color:#ffffff;stop-opacity:0.39879155;"
         offset="1"
         id="stop195" />
    </linearGradient>
    <linearGradient
       id="linearGradient192"
       inkscape:collect="always">
      <stop
         style="stop-color:#ffffff;stop-opacity:1;"
         offset="0"
         id="stop192" />
      <stop
         style="stop-color:#ffffff;stop-opacity:0.50151056;"
         offset="1"
         id="stop193" />
    </linearGradient>
    <color-profile
       name="_2070W"
       xlink:href="../../../../Windows/system32/spool/drivers/color/2070W.icm"
       id="color-profile1" />
    <linearGradient
       inkscape:collect="always"
       xlink:href="#linearGradient192"
       id="linearGradient193"
       x1="20.853306"
       y1="166.6207"
       x2="24.191906"
       y2="166.6207"
       gradientUnits="userSpaceOnUse" />
    <linearGradient
       inkscape:collect="always"
       xlink:href="#linearGradient194"
       id="linearGradient195"
       x1="26.647599"
       y1="166.52618"
       x2="32.710094"
       y2="166.52618"
       gradientUnits="userSpaceOnUse" />
    <linearGradient
       inkscape:collect="always"
       xlink:href="#linearGradient197"
       id="linearGradient203"
       x1="22.961357"
       y1="170.53226"
       x2="24.634317"
       y2="170.53226"
       gradientUnits="userSpaceOnUse" />
  </defs>
  <g
     inkscape:label="Capa 1"
     inkscape:groupmode="layer"
     id="layer1"
     transform="translate(-13.321488,-28.66706)"
     style="display:inline;mix-blend-mode:normal;opacity:1">
    <g
       id="g6"
       transform="matrix(11.266046,0,0,11.266046,-198.92376,-1827.269)"
       style="display:inline">
      <g
         id="g4"
         style="display:inline">
        <g
           id="g2">
          <g
             id="g3">
            <g
               id="g5" />
          </g>
        </g>
      </g>
      <g
         id="g14"
         transform="matrix(1.3708544,0,0,1.3708544,-9.6729313,-62.037887)"
         style="display:inline">
        <g
           id="g193"
           style="fill:url(#linearGradient195)">
          <path
             d="m 26.647599,166.9555 c 0,-0.18151 0.06745,-0.34133 0.202343,-0.47952 0.134896,-0.13819 0.300595,-0.20729 0.497097,-0.20729 0.184818,0 0.343613,0.0618 0.476384,0.18562 0.133835,0.12376 0.20075,0.27844 0.20075,0.46406 0,0.18771 -0.07011,0.3527 -0.21031,0.49501 -0.140207,0.14129 -0.303782,0.21192 -0.490723,0.21192 -0.184817,0 -0.343613,-0.065 -0.476383,-0.1949 -0.132773,-0.13096 -0.199158,-0.28927 -0.199158,-0.4749 z m 0.26024,-0.0193 c 0.01568,0.31761 0.01569,0.68877 0.41414,0.69012 0.209446,0 0.453647,-0.0674 0.453647,-0.66583 -0.01952,-0.32568 -0.02032,-0.68731 -0.4269,-0.68764 -0.396804,0 -0.440887,0.54325 -0.440887,0.66335 z"
             style="font-size:3.175px;font-family:'Bell MT';-inkscape-font-specification:'Bell MT';display:inline;stroke-width:0.023782;fill:url(#linearGradient195)"
             id="path14" />
          <path
             style="font-size:3.175px;font-family:'Bell MT';-inkscape-font-specification:'Bell MT';stroke-width:0.264583;fill:url(#linearGradient195)"
             d="m 30.770243,165.42604 c 10e-4,0.22117 0.0015,0.51986 0.0015,0.89607 l -0.0124,0.98444 c 0,0.10852 0.05013,0.17156 0.150378,0.18913 0.03307,0.006 0.04961,0.0169 0.04961,0.0326 0,0.0124 -0.0062,0.0202 -0.0186,0.0233 -0.01137,0.003 -0.07958,0.005 -0.204638,0.005 -0.06408,-0.001 -0.127642,-0.002 -0.190686,-0.003 -0.0031,-0.0631 -0.0047,-0.10854 -0.0047,-0.13642 0,-0.0351 0.0016,-0.0853 0.0047,-0.15038 -0.05581,0.10335 -0.119375,0.18087 -0.190686,0.23254 -0.07131,0.0517 -0.150379,0.0775 -0.237195,0.0775 -0.12299,0 -0.248047,-0.0579 -0.375171,-0.17364 -0.126091,-0.11575 -0.189136,-0.27181 -0.189136,-0.46818 0,-0.19121 0.05891,-0.35709 0.176733,-0.49765 0.118856,-0.14056 0.264584,-0.21084 0.437183,-0.21084 0.08682,0 0.161748,0.0186 0.224793,0.0558 0.06305,0.0362 0.114206,0.0915 0.153479,0.16588 0.0062,-0.12195 0.0093,-0.23667 0.0093,-0.34416 0,-0.32969 -0.0083,-0.51263 -0.0248,-0.54881 -0.01654,-0.0362 -0.0553,-0.0579 -0.116272,-0.0651 -0.03824,-0.005 -0.05736,-0.0151 -0.05736,-0.0294 0,-0.0176 0.02429,-0.0264 0.07286,-0.0264 z m -0.218591,1.38906 c 0,-0.1757 -0.02997,-0.30696 -0.08992,-0.39377 -0.05891,-0.0879 -0.172423,-0.20564 -0.291686,-0.19343 -0.22937,0.0235 -0.327247,0.35005 -0.335624,0.66953 -0.0078,0.29852 0.04249,0.63681 0.286112,0.67498 0.0868,0.0136 0.169663,-0.0347 0.251312,-0.12779 0.09589,-0.10148 0.179801,-0.37631 0.179801,-0.62952 z m 1.610754,0.32246 c 0,0.11989 -0.04444,0.22325 -0.133325,0.31006 -0.08888,0.0858 -0.194303,0.12868 -0.31626,0.12868 -0.07235,0 -0.158646,-0.0233 -0.258899,-0.0698 -0.05477,-0.0248 -0.08733,-0.0372 -0.09767,-0.0372 -0.01757,0 -0.03307,0.0109 -0.04651,0.0326 -0.01654,0.0289 -0.03204,0.0434 -0.04651,0.0434 -0.02255,0 -0.02735,-0.026 -0.02945,-0.24494 -0.0011,-0.0899 -0.0026,-0.14779 -0.0047,-0.17363 0,-0.0383 -0.0014,-0.0603 -0.0014,-0.0603 0,0 0.07178,0.15678 0.226156,0.33319 0.07338,0.0816 0.159164,0.12248 0.257349,0.12248 0.06925,0 0.130742,-0.0212 0.184485,-0.0636 0.05375,-0.0434 0.08062,-0.10179 0.08062,-0.17518 0,-0.11369 -0.0987,-0.21446 -0.296106,-0.30231 -0.135392,-0.061 -0.225826,-0.10544 -0.271301,-0.13332 -0.04547,-0.0279 -0.08113,-0.0657 -0.10697,-0.11317 -0.02584,-0.0475 -0.03876,-0.0992 -0.03876,-0.15503 0,-0.10645 0.04031,-0.19534 0.120923,-0.26665 0.08061,-0.0724 0.280343,-0.0925 0.394719,-0.0836 0.62841,-0.0172 0.424966,0.35849 0.709033,0.46659 0.04048,0.0154 0.159118,0.0282 0.222264,-0.0361 0,0 -0.169101,0.22803 -0.453371,0.0928 -0.04622,-0.022 -0.131115,-0.0501 -0.216028,-0.23441 -0.142013,-0.30828 -0.213738,-0.29075 -0.350198,-0.28397 -0.07434,0.004 -0.13124,0.0202 -0.189161,0.0793 -0.04185,0.0427 -0.06301,0.0873 -0.06301,0.14523 0,0.0362 0.0098,0.0688 0.02946,0.0977 0.01964,0.0289 0.03773,0.0506 0.05426,0.0651 0.01757,0.0145 0.116275,0.062 0.296106,0.14262 0.111621,0.0507 0.185002,0.0899 0.220142,0.11783 0.03514,0.0269 0.0646,0.0636 0.08837,0.11007 0.02377,0.0465 0.03566,0.0951 0.03566,0.14572 z"
             id="path177"
             aria-label="FcFoods"
             sodipodi:nodetypes="ccccscccscsscscsccsscsccscssscssccscscsccccscsccsscsscsssssscccscc" />
          <path
             d="m 28.091928,166.9555 c 0,-0.18151 0.06745,-0.34133 0.202343,-0.47952 0.134896,-0.13819 0.300595,-0.20729 0.497097,-0.20729 0.184818,0 0.343613,0.0618 0.476384,0.18562 0.133835,0.12376 0.20075,0.27844 0.20075,0.46406 0,0.18771 -0.07011,0.3527 -0.21031,0.49501 -0.140207,0.14129 -0.303782,0.21192 -0.490723,0.21192 -0.184817,0 -0.343613,-0.065 -0.476383,-0.1949 -0.132773,-0.13096 -0.199158,-0.28927 -0.199158,-0.4749 z m 0.26024,-0.0193 c 0.01568,0.31761 0.01569,0.68877 0.41414,0.69012 0.209446,0 0.453647,-0.0674 0.453647,-0.66583 -0.01952,-0.32568 -0.02032,-0.68731 -0.4269,-0.68764 -0.396804,0 -0.440887,0.54325 -0.440887,0.66335 z"
             style="font-size:3.175px;font-family:'Bell MT';-inkscape-font-specification:'Bell MT';stroke-width:0.023782;fill:url(#linearGradient195)"
             id="path11" />
        </g>
        <g
           id="g192"
           style="fill:url(#linearGradient193)">
          <path
             d="m 23.030922,166.98881 c 0,-0.19057 0.06092,-0.35721 0.182776,-0.49989 0.122893,-0.14268 0.272343,-0.21402 0.44835,-0.21402 0.0635,0 0.281427,0.0545 0.329247,0.0677 0.122328,0.0336 0.154931,-0.008 0.154931,-0.008 l -0.01935,0.4089 c -0.03744,-0.18347 -0.274087,-0.46182 -0.454515,-0.46392 -0.118719,-7e-4 -0.221167,0.10484 -0.283654,0.20791 -0.06144,0.10206 -0.09218,0.2364 -0.09218,0.40304 0,0.1958 0.04459,0.37766 0.10247,0.51723 0.01324,0.032 0.0892,0.21305 0.274786,0.21521 0.272981,0.003 0.464702,-0.2213 0.518123,-0.43514 0,0 -0.01266,0.17057 -0.170513,0.31974 -0.09373,0.0896 -0.219748,0.13435 -0.37805,0.13435 -0.172884,0 -0.318167,-0.0656 -0.435853,-0.19684 -0.117685,-0.13123 -0.176527,-0.28327 -0.176527,-0.45616 z"
             style="font-size:3.175px;font-family:'Bell MT';-inkscape-font-specification:'Bell MT';stroke-width:0.0236653;fill:url(#linearGradient193);fill-opacity:1"
             id="path12" />
          <path
             d="m 21.99153,166.59769 c 0.520041,0.0226 0.488236,-0.40964 0.488236,-0.40964 l 0.0032,0.80437 c 0,0 0.0203,-0.40241 -0.500696,-0.39585 z m -0.01189,-0.0423 -0.0047,0.38011 c 0,0.26572 0.0041,0.41447 0.01231,0.44628 0.0083,0.0307 0.02566,0.0631 0.05232,0.0969 0.02771,0.0329 0.08465,0.0518 0.170818,0.0569 0.04617,0.002 0.06924,0.0133 0.06924,0.0338 0,0.0227 -0.01642,0.0339 -0.04924,0.0339 -0.01231,0 -0.04463,-0.002 -0.09697,-0.008 -0.106699,-0.0109 -0.201084,-0.0153 -0.283159,-0.0153 -0.06977,0 -0.166715,0.005 -0.290854,0.0123 l -0.08618,0.005 c -0.03283,0 -0.04924,-0.0109 -0.04924,-0.0307 0,-0.0205 0.02411,-0.0307 0.07233,-0.0307 0.06566,0 0.112848,-0.0184 0.141578,-0.0553 0.02873,-0.0369 0.04719,-0.13081 0.0554,-0.28162 0.0093,-0.15183 0.01386,-0.3519 0.01386,-0.60017 0,-0.23393 0.02122,-0.41477 0.01297,-0.54916 -0.01544,-0.14088 0.0039,-0.0371 -0.03275,-0.32137 -0.0052,-0.0397 -0.0505,-0.11842 -0.08436,-0.12428 -0.03276,-0.006 -0.09723,-0.0126 -0.150361,0.0305 -0.09281,0.0754 -0.157148,0.2534 -0.03144,0.49693 0.150127,0.29081 -0.09725,0.56587 -0.427158,0.57791 -0.0242,7.2e-4 -0.147249,0.006 -0.140479,0.002 0.152142,-0.0616 0.327078,-0.14823 0.283778,-0.35485 -0.02299,-0.10965 -0.08517,-0.19339 -0.09637,-0.38495 -0.0078,-0.13378 0.0365,-0.27031 0.240242,-0.34864 0.04912,-0.0189 0.183868,-0.0223 0.259496,-0.0234 0.176818,4.6e-4 0.628608,0.0109 1.341633,0.0109 0.122088,0 0.192073,-2.4e-4 0.202332,0.002 -0.0079,0.18144 -0.04664,0.62685 -0.04782,0.58595 -0.01886,-0.66348 -0.990697,-0.59191 -1.02965,-0.51318 -0.01128,0.0133 -0.01898,0.0776 -0.02309,0.19236 -0.0032,0.11493 -0.0047,0.31547 -0.0047,0.6017 z"
             style="font-size:3.175px;font-family:'Bell MT';-inkscape-font-specification:'Bell MT';stroke-width:0.0170059;fill:url(#linearGradient193);fill-opacity:1"
             id="path1" />
        </g>
        <g
           id="g1"
           transform="translate(2.0079693,-3.9572261)"
           style="display:inline;fill:url(#linearGradient203);fill-opacity:1">
          <path
             d="m 23.521073,170.4844 -0.0047,0.38292 c 0,0.26768 0.0041,0.41754 0.0124,0.44958 0.0083,0.031 0.02584,0.0636 0.05271,0.0977 0.02791,0.0331 0.08527,0.0522 0.172082,0.0574 0.04651,0.002 0.06976,0.0134 0.06976,0.0341 0,0.0227 -0.01654,0.0341 -0.04961,0.0341 -0.0124,0 -0.04496,-0.003 -0.09767,-0.008 -0.107487,-0.0103 -0.202572,-0.0155 -0.285254,-0.0155 -0.07028,0 -0.167947,0.004 -0.293004,0.0124 l -0.08682,0.005 c -0.03307,0 -0.04961,-0.0103 -0.04961,-0.031 0,-0.0207 0.02429,-0.031 0.07286,-0.031 0.06615,0 0.113689,-0.0186 0.142626,-0.0558 0.02894,-0.0372 0.04754,-0.13177 0.05581,-0.2837 0.0093,-0.15296 0.01395,-0.3545 0.01395,-0.60462 0,-0.23564 0.01307,-0.0704 0.01307,-0.55321 -3e-6,-0.48286 -0.261699,-0.4488 -0.261699,-0.4488 -0.140315,0.004 0.72044,-0.01 1.432515,0.007 0.122957,0.003 0.193493,-2e-4 0.203828,0.003 -0.008,0.18276 -0.04698,0.63148 -0.04816,0.59027 -0.019,-0.66839 -0.998026,-0.59628 -1.037267,-0.51698 -0.01137,0.0135 -0.01912,0.0781 -0.02325,0.19379 -0.0031,0.11575 -0.0047,0.31781 -0.0047,0.60616 z"
             style="font-size:3.175px;font-family:'Bell MT';-inkscape-font-specification:'Bell MT';fill:url(#linearGradient203);stroke-width:0.264583;fill-opacity:1"
             id="path9"
             sodipodi:nodetypes="cccccsscsccssccszcscccccc" />
          <path
             style="fill:url(#linearGradient203);fill-opacity:1;stroke-width:0.293153"
             d="m 23.623414,170.44882 c 0.523888,0.0226 0.491847,-0.41268 0.491847,-0.41268 l 0.0032,0.81033 c 0,0 0.02045,-0.40539 -0.504398,-0.39879 z"
             id="path8"
             sodipodi:nodetypes="ccccc" />
        </g>
      </g>
    </g>
  </g>
</svg>
